<?xml version="1.0" encoding="UTF-8"?>
<!DOCTYPE svg PUBLIC "-//W3C//DTD SVG 1.1//EN" "http://www.w3.org/Graphics/SVG/1.1/DTD/svg11.dtd">
<!-- Creator: CorelDRAW 2021 (64-Bit) -->
<svg xmlns="http://www.w3.org/2000/svg" xml:space="preserve" width="2.27472in" height="1.83474in" version="1.1" style="shape-rendering:geometricPrecision; text-rendering:geometricPrecision; image-rendering:optimizeQuality; fill-rule:evenodd; clip-rule:evenodd"
viewBox="0 0 508.75 410.35"
 xmlns:xlink="http://www.w3.org/1999/xlink"
 xmlns:xodm="http://www.corel.com/coreldraw/odm/2003">
 <defs>
  <style type="text/css">
   <![CDATA[
    .fil1 {fill:#119075}
    .fil0 {fill:#119075;fill-rule:nonzero}
   ]]>
  </style>
 </defs>
 <g id="Layer_x0020_1">
  <metadata id="CorelCorpID_0Corel-Layer"/>
  <g id="_2152652657344">
   <g>
    <path class="fil0" d="M160.93 329.89l0 -28.08c0,-4.91 3.98,-8.89 8.89,-8.89 4.91,0 8.89,3.98 8.89,8.89l0 28.08c0,16.59 6.79,31.67 17.73,42.61 10.94,10.94 26.02,17.73 42.61,17.73l95.78 0c28.06,0 54.45,-7.5 77.26,-20.59 23.67,-13.59 43.5,-33.2 57.35,-56.7 2.49,-4.22 7.94,-5.62 12.16,-3.13 4.22,2.49 5.62,7.94 3.13,12.16 -15.42,26.15 -37.48,47.97 -63.82,63.09 -25.42,14.6 -54.83,22.96 -86.08,22.96l-95.78 0c-21.49,0 -41.03,-8.79 -55.18,-22.94 -14.16,-14.16 -22.94,-33.69 -22.94,-55.18zm17.79 -62.39c0,4.91 -3.98,8.89 -8.89,8.89 -4.91,0 -8.89,-3.98 -8.89,-8.89l0 -180.35c0,-21.49 8.79,-41.03 22.94,-55.18 14.16,-14.16 33.69,-22.94 55.18,-22.94l33.01 0c4.91,0 8.89,3.98 8.89,8.89 0,4.91 -3.98,8.89 -8.89,8.89l-33.01 0c-16.59,0 -31.67,6.79 -42.61,17.73 -10.94,10.94 -17.73,26.02 -17.73,42.61l0 180.35zm135.22 -240.69c-4.91,0 -8.89,-3.98 -8.89,-8.89 0,-4.91 3.98,-8.89 8.89,-8.89l20.9 0c47.83,0 91.31,19.56 122.83,51.08 31.52,31.52 51.08,75 51.08,122.83l0 51.18c0,9.87 -0.85,19.62 -2.48,29.15 -1.66,9.71 -4.14,19.17 -7.36,28.29 -1.63,4.62 -6.7,7.05 -11.33,5.42 -4.62,-1.63 -7.05,-6.7 -5.42,-11.33 2.88,-8.16 5.1,-16.65 6.59,-25.38 1.44,-8.46 2.2,-17.2 2.2,-26.17l0 -51.18c0,-42.93 -17.57,-81.96 -45.87,-110.26 -28.3,-28.3 -67.33,-45.87 -110.25,-45.87l-20.9 0z"/>
    <path class="fil0" d="M334.84 58.32l-28.38 0c-4.91,0 -8.89,-3.98 -8.89,-8.89 0,-4.91 3.98,-8.89 8.89,-8.89l28.38 0c31.81,0 61.31,10.63 85.12,28.51 24.38,18.3 42.76,44.21 51.54,74.1 1.38,4.7 -1.31,9.63 -6.01,11.01 -4.7,1.38 -9.63,-1.31 -11.01,-6.01 -7.69,-26.19 -23.8,-48.89 -45.15,-64.92 -20.8,-15.61 -46.61,-24.89 -74.49,-24.89zm-65.27 -17.79c4.91,0 8.89,3.98 8.89,8.89 0,4.91 -3.98,8.89 -8.89,8.89l-30.52 0c-7.89,0 -15.09,3.26 -20.33,8.5 -5.24,5.24 -8.5,12.44 -8.5,20.33l0 91.94c0,4.91 -3.98,8.89 -8.89,8.89 -4.91,0 -8.89,-3.98 -8.89,-8.89l0 -91.94c0,-12.8 5.26,-24.45 13.71,-32.91 8.45,-8.45 20.11,-13.71 32.91,-13.71l30.52 0zm-77.13 175.61c0,-4.91 3.98,-8.89 8.89,-8.89 4.91,0 8.89,3.98 8.89,8.89l0 16.15c0,4.91 -3.98,8.89 -8.89,8.89 -4.91,0 -8.89,-3.98 -8.89,-8.89l0 -16.15zm0 51.01c0,-4.91 3.98,-8.89 8.89,-8.89 4.91,0 8.89,3.98 8.89,8.89l0 62.74c0,7.89 3.26,15.09 8.5,20.33 5.24,5.24 12.44,8.5 20.33,8.5l39.68 0c4.91,0 8.89,3.98 8.89,8.89 0,4.91 -3.98,8.89 -8.89,8.89l-39.68 0c-12.8,0 -24.45,-5.26 -32.9,-13.71 -8.45,-8.45 -13.71,-20.11 -13.71,-32.91l0 -62.74zm124.86 109.36c-4.91,0 -8.89,-3.98 -8.89,-8.89 0,-4.91 3.98,-8.89 8.89,-8.89l17.54 0c34.23,0 65.38,-14.04 87.98,-36.63 22.6,-22.6 36.63,-53.75 36.63,-87.98l0 -45.98 -0.08 -2.39c-0.17,-4.89 3.65,-9 8.55,-9.17 4.89,-0.17 9,3.65 9.17,8.55l0.14 5.37 0 43.61c0,39.14 -16.03,74.74 -41.85,100.55 -25.81,25.81 -61.41,41.85 -100.55,41.85l-17.54 0z"/>
    <path class="fil0" d="M427.94 182.93c0,-25.53 -10.51,-48.81 -27.4,-65.7 -16.89,-16.89 -40.17,-27.4 -65.7,-27.4l-93.1 0 0 28.58c0,4.91 -3.98,8.89 -8.89,8.89 -4.91,0 -8.89,-3.98 -8.89,-8.89l0 -31.26c0,-4.08 1.75,-7.86 4.48,-10.59l0.03 -0.03c2.73,-2.73 6.52,-4.48 10.59,-4.48l95.78 0c30.44,0 58.16,12.5 78.27,32.61 20.11,20.11 32.61,47.83 32.61,78.27l0 14.29c0,4.91 -3.98,8.89 -8.89,8.89 -4.91,0 -8.89,-3.98 -8.89,-8.89l0 -14.29zm-203.98 -27.9c0,-4.91 3.98,-8.89 8.89,-8.89 4.91,0 8.89,3.98 8.89,8.89l0 172.17 93.1 0c19.24,0 37.16,-5.93 52.03,-16.04 15.35,-10.44 27.49,-25.35 34.49,-42.81 1.82,-4.55 6.99,-6.76 11.53,-4.93 4.55,1.82 6.75,6.99 4.93,11.53 -8.31,20.72 -22.74,38.44 -41.02,50.87 -17.76,12.08 -39.11,19.16 -61.96,19.16l-95.78 0c-4.1,0 -7.9,-1.75 -10.63,-4.48 -2.73,-2.73 -4.48,-6.53 -4.48,-10.63l0 -174.85zm220.71 89.11c-0.67,4.85 -5.15,8.24 -10.01,7.57 -4.85,-0.67 -8.24,-5.15 -7.57,-10.01 0.18,-1.31 0.4,-2.54 0.58,-3.54 0.18,-0.98 0.27,-1.5 0.27,-4.07l0 -11.86c0,-4.91 3.98,-8.89 8.89,-8.89 4.91,0 8.89,3.98 8.89,8.89l0 11.86c0,3.79 -0.21,4.95 -0.62,7.19 -0.1,0.55 -0.22,1.22 -0.44,2.84z"/>
    <path class="fil0" d="M334.84 121.34l-61.59 0 0 104.6c0,4.91 -3.98,8.89 -8.89,8.89 -4.91,0 -8.89,-3.98 -8.89,-8.89l0 -113.49c0,-4.91 3.98,-8.89 8.89,-8.89l70.48 0c3.41,0 6.9,0.25 10.44,0.72 3.44,0.46 6.86,1.17 10.24,2.1 4.72,1.29 7.5,6.15 6.22,10.87 -1.29,4.72 -6.15,7.5 -10.87,6.22 -2.54,-0.7 -5.2,-1.24 -7.95,-1.61 -2.52,-0.34 -5.21,-0.52 -8.08,-0.52zm-79.37 140.27c0,-4.91 3.98,-8.89 8.89,-8.89 4.91,0 8.89,3.98 8.89,8.89l0 34.08 16.38 0c4.91,0 8.89,3.98 8.89,8.89 0,4.91 -3.98,8.89 -8.89,8.89l-25.28 0c-4.91,0 -8.89,-3.98 -8.89,-8.89l0 -42.97zm65.34 51.87c-4.91,0 -8.89,-3.98 -8.89,-8.89 0,-4.91 3.98,-8.89 8.89,-8.89l14.03 0c2.18,0 4.14,-0.09 5.9,-0.26 1.85,-0.18 3.81,-0.48 5.87,-0.89 4.82,-0.94 9.48,2.2 10.42,7.02 0.94,4.82 -2.2,9.48 -7.02,10.42 -2.34,0.46 -4.86,0.83 -7.54,1.1 -2.7,0.27 -5.25,0.4 -7.64,0.4l-14.03 0zm51.94 -9.79c-4.3,2.36 -9.7,0.79 -12.06,-3.51 -2.36,-4.3 -0.79,-9.7 3.51,-12.06 9.75,-5.37 17.94,-13.3 23.63,-22.84 5.45,-9.14 8.59,-19.81 8.59,-31.17l0 -51.18c0,-9.69 -2.29,-18.88 -6.35,-27.05 -4.24,-8.53 -10.42,-15.99 -17.94,-21.78 -3.87,-2.99 -4.59,-8.56 -1.6,-12.44 2.99,-3.88 8.56,-4.59 12.44,-1.6 9.63,7.41 17.56,16.98 23.01,27.96 5.26,10.58 8.23,22.45 8.23,34.9l0 51.18c0,14.61 -4.09,28.4 -11.17,40.27 -7.3,12.25 -17.81,22.42 -30.3,29.31z"/>
   </g>
   <g>
    <path class="fil0" d="M58.04 205.03c0,-4.91 3.98,-8.89 8.89,-8.89 4.91,0 8.89,3.98 8.89,8.89l0 5.76c0,4.91 -3.98,8.89 -8.89,8.89 -4.91,0 -8.89,-3.98 -8.89,-8.89l0 -5.76z"/>
    <path class="fil0" d="M0.13 343.55l0 -36.77c0,-4.91 3.98,-8.89 8.89,-8.89 4.91,0 8.89,3.98 8.89,8.89l0 36.77c0,13.47 5.52,25.72 14.4,34.61 8.89,8.89 21.14,14.4 34.61,14.4 11,0 21.15,-3.64 29.32,-9.77 8.41,-6.31 14.75,-15.24 17.76,-25.53 1.36,-4.7 6.28,-7.41 10.98,-6.04 4.7,1.36 7.41,6.28 6.04,10.98 -4.11,14.04 -12.73,26.2 -24.15,34.77 -11.18,8.4 -25.03,13.38 -39.95,13.38 -18.38,0 -35.08,-7.51 -47.18,-19.62 -12.1,-12.1 -19.62,-28.81 -19.62,-47.18zm17.79 -69c0,4.91 -3.98,8.89 -8.89,8.89 -4.91,0 -8.89,-3.98 -8.89,-8.89l0 -70.48c0,-18.38 7.51,-35.08 19.62,-47.19 12.1,-12.1 28.81,-19.62 47.18,-19.62 4.63,0 9.22,0.5 13.71,1.45 4.62,0.98 9.02,2.41 13.15,4.24 4.49,1.98 6.53,7.22 4.55,11.71 -1.98,4.49 -7.22,6.53 -11.71,4.55 -3.1,-1.37 -6.32,-2.43 -9.61,-3.12 -3.2,-0.68 -6.57,-1.03 -10.1,-1.03 -13.47,0 -25.72,5.52 -34.61,14.4 -8.89,8.89 -14.4,21.14 -14.4,34.61l0 70.48zm89.65 -97.79c-2.74,-4.07 -1.67,-9.59 2.4,-12.33 4.07,-2.74 9.59,-1.67 12.33,2.4 3.64,5.39 6.53,11.37 8.49,17.78 1.91,6.23 2.94,12.77 2.94,19.47l0 123.43c0,4.91 -3.98,8.89 -8.89,8.89 -4.91,0 -8.89,-3.98 -8.89,-8.89l0 -123.43c0,-5.02 -0.74,-9.8 -2.1,-14.26 -1.43,-4.65 -3.56,-9.04 -6.27,-13.06z"/>
    <path class="fil0" d="M25.34 204.07c0,-11.45 4.68,-21.85 12.21,-29.38 7.53,-7.53 17.93,-12.21 29.38,-12.21 11.44,0 21.84,4.68 29.38,12.21 7.53,7.53 12.21,17.93 12.21,29.38l0 91.51c0,4.91 -3.98,8.89 -8.89,8.89 -4.91,0 -8.89,-3.98 -8.89,-8.89l0 -91.51c0,-6.54 -2.68,-12.49 -7,-16.8 -4.32,-4.32 -10.27,-7 -16.8,-7 -6.54,0 -12.49,2.68 -16.8,7 -4.32,4.32 -7,10.27 -7,16.8l0 18.26c0,4.91 -3.98,8.89 -8.89,8.89 -4.91,0 -8.89,-3.98 -8.89,-8.89l0 -18.26zm65.39 123.73c0,-4.91 3.98,-8.89 8.89,-8.89 4.91,0 8.89,3.98 8.89,8.89l0 15.74c0,11.44 -4.68,21.85 -12.21,29.38 -7.53,7.53 -17.94,12.21 -29.38,12.21 -11.45,0 -21.85,-4.68 -29.38,-12.21 -7.53,-7.53 -12.21,-17.94 -12.21,-29.38l0 -88.99c0,-4.91 3.98,-8.89 8.89,-8.89 4.91,0 8.89,3.98 8.89,8.89l0 88.99c0,6.54 2.68,12.49 7,16.81 4.32,4.32 10.27,7 16.8,7 6.54,0 12.49,-2.68 16.8,-7 4.32,-4.32 7,-10.27 7,-16.81l0 -15.74z"/>
    <path class="fil0" d="M58.04 205.19c0,-4.91 3.98,-8.89 8.89,-8.89 4.91,0 8.89,3.98 8.89,8.89l0 12.23c0,4.91 -3.98,8.89 -8.89,8.89 -4.91,0 -8.89,-3.98 -8.89,-8.89l0 -12.23zm0 42.3c0,-4.91 3.98,-8.89 8.89,-8.89 4.91,0 8.89,3.98 8.89,8.89l0 89.89c0,4.91 -3.98,8.89 -8.89,8.89 -4.91,0 -8.89,-3.98 -8.89,-8.89l0 -89.89z"/>
    <path class="fil0" d="M-0 66.93c0,-18.48 7.49,-35.21 19.6,-47.32 12.11,-12.11 28.85,-19.6 47.33,-19.6 16.86,0 32.29,6.27 44.08,16.61 11.92,10.45 20.1,25.08 22.26,41.6 0.63,4.85 -2.79,9.3 -7.64,9.94 -4.85,0.63 -9.3,-2.79 -9.93,-7.64 -1.58,-12.13 -7.59,-22.87 -16.35,-30.55 -8.63,-7.57 -19.97,-12.16 -32.4,-12.16 -13.57,0 -25.86,5.5 -34.75,14.39 -8.89,8.89 -14.39,21.18 -14.39,34.75 0,1.2 0.02,2.19 0.07,2.95 0.05,0.84 0.14,1.81 0.27,2.89 0.57,4.87 -2.91,9.29 -7.78,9.87 -4.87,0.57 -9.29,-2.91 -9.87,-7.78 -0.14,-1.18 -0.25,-2.49 -0.34,-3.94 -0.09,-1.53 -0.14,-2.87 -0.14,-3.99zm111.59 20.57c2.05,-4.45 7.33,-6.39 11.78,-4.34 4.45,2.05 6.39,7.33 4.34,11.78 -5.38,11.67 -14.02,21.52 -24.74,28.38 -10.43,6.68 -22.8,10.55 -36.04,10.55 -10.27,0 -20.01,-2.32 -28.73,-6.47 -9,-4.29 -16.92,-10.56 -23.19,-18.27 -3.09,-3.8 -2.51,-9.38 1.29,-12.47 3.8,-3.09 9.38,-2.51 12.47,1.29 4.57,5.62 10.4,10.23 17.08,13.41 6.37,3.04 13.53,4.73 21.09,4.73 9.76,0 18.84,-2.82 26.45,-7.7 7.9,-5.06 14.26,-12.3 18.21,-20.88z"/>
    <path class="fil0" d="M25.21 66.93c0,-11.52 4.67,-21.95 12.22,-29.5 7.55,-7.55 17.98,-12.22 29.5,-12.22 11.52,0 21.95,4.67 29.5,12.22 7.55,7.55 12.22,17.98 12.22,29.5 0,7.43 -1.98,14.45 -5.44,20.55 -3.56,6.27 -8.71,11.54 -14.89,15.24 -4.2,2.51 -9.65,1.14 -12.16,-3.06 -2.51,-4.2 -1.14,-9.65 3.06,-12.16 3.55,-2.13 6.52,-5.16 8.57,-8.78 1.95,-3.44 3.07,-7.47 3.07,-11.79 0,-6.61 -2.68,-12.6 -7.01,-16.92 -4.33,-4.33 -10.31,-7.01 -16.92,-7.01 -6.61,0 -12.6,2.68 -16.92,7.01 -4.33,4.33 -7.01,10.31 -7.01,16.92 0,4.54 1.24,8.76 3.39,12.34 2.22,3.69 5.45,6.75 9.32,8.81 4.34,2.3 5.98,7.68 3.68,12.02 -2.3,4.34 -7.68,5.98 -12.02,3.68 -6.67,-3.55 -12.29,-8.9 -16.2,-15.41 -3.78,-6.29 -5.96,-13.63 -5.96,-21.44z"/>
    <path class="fil1" d="M66.68 53.61c7.36,0 13.32,5.96 13.32,13.32 0,7.36 -5.96,13.32 -13.32,13.32 -7.36,0 -13.32,-5.96 -13.32,-13.32 0,-7.36 5.96,-13.32 13.32,-13.32z"/>
   </g>
  </g>
 </g>
</svg>
