<?xml version="1.0" encoding="UTF-8"?>
<!DOCTYPE svg PUBLIC "-//W3C//DTD SVG 1.1//EN" "http://www.w3.org/Graphics/SVG/1.1/DTD/svg11.dtd">
<!-- Creator: CorelDRAW 2021 (64-Bit) -->
<svg xmlns="http://www.w3.org/2000/svg" xml:space="preserve" width="10.1703in" height="2.16603in" version="1.1" style="shape-rendering:geometricPrecision; text-rendering:geometricPrecision; image-rendering:optimizeQuality; fill-rule:evenodd; clip-rule:evenodd"
viewBox="0 0 10169.88 2165.94"
 xmlns:xlink="http://www.w3.org/1999/xlink"
 xmlns:xodm="http://www.corel.com/coreldraw/odm/2003">
 <defs>
  <style type="text/css">
   <![CDATA[
    .fil2 {fill:#119075}
    .fil1 {fill:#119075;fill-rule:nonzero}
    .fil0 {fill:#1A1A1A;fill-rule:nonzero}
   ]]>
  </style>
 </defs>
 <g id="Layer_x0020_1">
  <metadata id="CorelCorpID_0Corel-Layer"/>
  <g id="_2153174226592">
   <path class="fil0" d="M2943.2 855.53c107.63,0 198.26,66.08 198.26,181.26l-404.08 0c18.88,-117.07 100.07,-181.26 205.81,-181.26zm504.15 460.72l-343.66 0c-26.44,56.64 -77.42,101.96 -168.05,101.96 -103.86,0 -188.83,-64.19 -200.15,-202.04l730.73 0c3.78,-32.09 5.67,-64.19 5.67,-94.41 0,-321 -217.14,-524.92 -524.92,-524.92 -313.45,0 -532.48,207.7 -532.48,541.91 0,334.21 222.81,541.92 532.48,541.92 262.46,0 449.39,-158.61 500.38,-364.42z"/>
   <path class="fil0" d="M4280.12 1665.56l321 0 0 -615.56c0,-283.23 -162.39,-449.39 -405.97,-449.39 -141.61,0 -254.91,62.31 -319.11,151.05l0 -139.72 -322.88 0 0 1053.62 322.88 0 0 -572.13c0,-143.5 79.3,-222.81 202.04,-222.81 122.74,0 202.04,79.3 202.04,222.81l0 572.13z"/>
   <polygon class="fil0" points="5111.01,1663.89 5111.01,1303.03 5111.01,880.07 5322.49,880.07 5322.49,611.95 5111.01,611.95 5111.01,355.15 4788.12,355.15 4788.12,611.95 4659.72,611.95 4659.72,880.07 4788.12,880.07 4788.12,1299.25 4788.12,1665.56 5111.01,1665.56 "/>
   <path class="fil0" d="M5415.08 1665.56l322.88 0 0 -1053.62 -322.88 0 0 1053.62zm162.39 -1163.14c113.29,0 190.7,-77.42 190.7,-173.71 0,-98.18 -77.42,-175.6 -190.7,-175.6 -115.18,0 -192.6,77.42 -192.6,175.6 0,96.3 77.42,173.71 192.6,173.71z"/>
   <path class="fil0" d="M5915.53 1665.56l322.88 0 0 -785.5 327.47 0 -153.76 -268.12 -173.71 0 0 -9.44c0,-111.4 43.43,-149.17 168.05,-141.62l0 -273.79c-320.99,-17 -490.93,118.96 -490.93,394.63l0 30.22 -117.07 0 0 268.12 117.07 0 0 785.5z"/>
   <polygon class="fil0" points="6959.78,1270.93 6716.2,611.95 6355.55,611.95 6784.18,1629.69 6542.48,2165.94 6889.92,2165.94 7550.79,611.95 7201.47,611.95 "/>
   <polygon class="fil0" points="8442.09,340.04 8442.09,1161.41 7902.07,340.04 7579.19,340.04 7579.19,1665.56 7902.07,1665.56 7902.07,847.97 8442.09,1665.56 8764.98,1665.56 8764.98,340.04 "/>
   <path class="fil0" d="M9529.78 324.94c-396.53,0 -674.1,279.46 -674.1,675.98 0,396.53 279.46,674.09 675.98,674.09 349.32,0 570.24,-228.47 638.21,-456.95l0 -300.23 -702.42 0 0 237.92 409.74 0c-49.09,149.16 -160.5,234.13 -321,234.13 -232.25,0 -371.98,-143.5 -371.98,-388.97 0,-230.36 137.84,-377.64 345.55,-377.64 120.84,0 211.48,47.2 260.57,135.95l356.87 0c-69.86,-271.9 -300.22,-434.29 -617.44,-434.29z"/>
  </g>
  <g id="_2153174234416">
   <g>
    <path class="fil1" d="M719.51 1474.93l0 -125.53c0,-21.96 17.81,-39.77 39.76,-39.77 21.96,0 39.77,17.81 39.77,39.77l0 125.53c0,74.15 30.36,141.6 79.28,190.51 48.9,48.91 116.35,79.28 190.51,79.28l428.24 0c125.47,0 243.46,-33.54 345.42,-92.08 105.84,-60.75 194.49,-148.44 256.43,-253.49 11.15,-18.87 35.49,-25.12 54.36,-13.98 18.87,11.15 25.12,35.49 13.98,54.36 -68.93,116.91 -167.57,214.47 -285.32,282.06 -113.67,65.26 -245.14,102.65 -384.87,102.65l-428.24 0c-96.09,0 -183.44,-39.29 -246.73,-102.59 -63.3,-63.29 -102.59,-150.64 -102.59,-246.73zm79.53 -278.93c0,21.96 -17.81,39.77 -39.77,39.77 -21.96,0 -39.76,-17.81 -39.76,-39.77l0 -806.36c0,-96.09 39.29,-183.44 102.59,-246.73 63.29,-63.29 150.64,-102.59 246.73,-102.59l147.58 0c21.96,0 39.77,17.81 39.77,39.77 0,21.96 -17.81,39.77 -39.77,39.77l-147.58 0c-74.15,0 -141.6,30.36 -190.51,79.28 -48.92,48.91 -79.28,116.35 -79.28,190.51l0 806.36zm604.59 -1076.14c-21.96,0 -39.77,-17.81 -39.77,-39.77 0,-21.96 17.81,-39.77 39.77,-39.77l93.44 0c213.85,0 408.27,87.47 549.17,228.38 140.91,140.91 228.38,335.31 228.38,549.18l0 228.81c0,44.14 -3.81,87.71 -11.09,130.35 -7.42,43.43 -18.5,85.72 -32.89,126.51 -7.29,20.67 -29.97,31.52 -50.64,24.23 -20.67,-7.29 -31.52,-29.97 -24.23,-50.64 12.87,-36.5 22.8,-74.42 29.48,-113.46 6.46,-37.82 9.84,-76.91 9.84,-116.99l0 -228.81c0,-191.93 -78.55,-366.43 -205.07,-492.96 -126.52,-126.53 -301.03,-205.07 -492.95,-205.07l-93.44 0z"/>
    <path class="fil1" d="M1497.07 260.74l-126.91 0c-21.96,0 -39.77,-17.81 -39.77,-39.77 0,-21.96 17.81,-39.77 39.77,-39.77l126.91 0c142.21,0 274.1,47.52 380.59,127.46 108.98,81.82 191.2,197.67 230.42,331.28 6.17,21.02 -5.85,43.07 -26.87,49.23 -21.01,6.17 -43.06,-5.85 -49.23,-26.87 -34.38,-117.11 -106.39,-218.61 -201.85,-290.28 -92.98,-69.8 -208.39,-111.3 -333.06,-111.3zm-291.81 -79.53c21.96,0 39.76,17.81 39.76,39.77 0,21.96 -17.81,39.77 -39.76,39.77l-136.44 0c-35.27,0 -67.48,14.57 -90.91,37.99 -23.42,23.42 -37.99,55.63 -37.99,90.9l0 411.06c0,21.96 -17.81,39.77 -39.76,39.77 -21.96,0 -39.77,-17.81 -39.77,-39.77l0 -411.06c0,-57.21 23.51,-109.33 61.3,-147.12 37.79,-37.78 89.91,-61.3 147.13,-61.3l136.44 0zm-344.86 785.14c0,-21.96 17.81,-39.77 39.77,-39.77 21.96,0 39.76,17.81 39.76,39.77l0 72.19c0,21.96 -17.81,39.77 -39.76,39.77 -21.96,0 -39.77,-17.81 -39.77,-39.77l0 -72.19zm0 228.05c0,-21.96 17.81,-39.77 39.77,-39.77 21.96,0 39.76,17.81 39.76,39.77l0 280.53c0,35.26 14.59,67.48 38,90.9 23.41,23.41 55.62,37.99 90.89,37.99l177.43 0c21.96,0 39.77,17.81 39.77,39.77 0,21.96 -17.81,39.77 -39.77,39.77l-177.43 0c-57.21,0 -109.33,-23.52 -147.12,-61.3 -37.79,-37.79 -61.31,-89.92 -61.31,-147.12l0 -280.53zm558.26 488.95c-21.96,0 -39.77,-17.81 -39.77,-39.77 0,-21.96 17.81,-39.77 39.77,-39.77l78.41 0c153.04,0 292.31,-62.76 393.35,-163.78 101.02,-101.03 163.78,-240.31 163.78,-393.35l0.02 -205.57 -0.34 -10.67c-0.77,-21.87 16.34,-40.24 38.21,-41.01 21.87,-0.77 40.24,16.34 41,38.21l0.64 24.03 0 195c0,174.98 -71.69,334.16 -187.09,449.57 -115.4,115.4 -274.59,187.09 -449.56,187.09l-78.41 0z"/>
    <path class="fil1" d="M1913.31 817.88c0,-114.15 -46.97,-218.21 -122.5,-293.74 -75.53,-75.53 -179.58,-122.5 -293.73,-122.5l-416.25 0 0 127.76c0,21.96 -17.81,39.77 -39.76,39.77 -21.96,0 -39.77,-17.81 -39.77,-39.77l0 -139.76c0,-18.23 7.81,-35.15 20.02,-47.36l0.15 -0.15c12.21,-12.2 29.13,-20.02 47.36,-20.02l428.24 0c136.09,0 260.05,55.91 349.95,145.81 89.91,89.91 145.81,213.87 145.81,349.96l0 63.9c0,21.96 -17.81,39.76 -39.77,39.76 -21.96,0 -39.77,-17.81 -39.77,-39.76l0 -63.9zm-912.01 -124.72c0,-21.96 17.81,-39.77 39.77,-39.77 21.96,0 39.76,17.81 39.76,39.77l0 769.78 416.25 0c86.02,0 166.16,-26.5 232.61,-71.7 68.64,-46.68 122.9,-113.34 154.19,-191.39 8.15,-20.33 31.24,-30.2 51.57,-22.06 20.33,8.15 30.2,31.24 22.06,51.56 -37.14,92.63 -101.68,171.85 -183.39,227.42 -79.41,54.01 -174.88,85.69 -277.03,85.69l-428.24 0c-18.32,0 -35.31,-7.82 -47.51,-20.02 -12.21,-12.21 -20.02,-29.19 -20.02,-47.51l0 -781.77zm986.79 398.41c-3,21.7 -23.03,36.86 -44.74,33.86 -21.7,-3 -36.86,-23.03 -33.86,-44.74 0.81,-5.87 1.8,-11.34 2.61,-15.81 0.79,-4.39 1.21,-6.68 1.21,-18.19l0 -53.01c0,-21.96 17.81,-39.76 39.77,-39.76 21.96,0 39.77,17.81 39.77,39.76l0 53.01c0,16.92 -0.94,22.13 -2.77,32.17 -0.44,2.44 -0.99,5.48 -1.99,12.71z"/>
    <path class="fil1" d="M1497.07 542.52l-275.35 0 0 467.67c0,21.96 -17.81,39.77 -39.77,39.77 -21.96,0 -39.77,-17.81 -39.77,-39.77l0 -507.43c0,-21.96 17.81,-39.76 39.77,-39.76l315.12 0c15.24,0 30.83,1.11 46.67,3.24 15.38,2.07 30.68,5.23 45.79,9.38 21.1,5.75 33.55,27.52 27.8,48.62 -5.75,21.1 -27.52,33.55 -48.62,27.8 -11.37,-3.11 -23.24,-5.54 -35.53,-7.2 -11.26,-1.52 -23.31,-2.31 -36.11,-2.31zm-354.88 627.14c0,-21.96 17.81,-39.77 39.77,-39.77 21.96,0 39.77,17.81 39.77,39.77l0 152.37 73.24 0c21.96,0 39.76,17.81 39.76,39.77 0,21.96 -17.81,39.77 -39.76,39.77l-113.01 0c-21.96,0 -39.77,-17.81 -39.77,-39.77l0 -192.14zm292.14 231.9c-21.96,0 -39.77,-17.81 -39.77,-39.77 0,-21.96 17.81,-39.77 39.77,-39.77l62.75 0c9.74,0 18.53,-0.4 26.38,-1.17 8.27,-0.81 17.05,-2.15 26.25,-3.97 21.53,-4.2 42.4,9.85 46.6,31.38 4.2,21.53 -9.85,42.4 -31.38,46.6 -10.47,2.07 -21.72,3.72 -33.7,4.9 -12.09,1.19 -23.5,1.8 -34.14,1.8l-62.75 0zm232.21 -43.79c-19.21,10.55 -43.35,3.52 -53.9,-15.69 -10.55,-19.21 -3.52,-43.35 15.69,-53.9 43.6,-24.03 80.23,-59.48 105.66,-102.13 24.37,-40.87 38.43,-88.58 38.43,-139.37l0 -228.81c0,-43.33 -10.25,-84.43 -28.41,-120.96 -18.97,-38.15 -46.6,-71.49 -80.21,-97.36 -17.32,-13.38 -20.52,-38.28 -7.15,-55.6 13.38,-17.33 38.28,-20.53 55.6,-7.15 43.07,33.14 78.5,75.94 102.89,125 23.52,47.32 36.81,100.37 36.81,156.06l0 228.81c0,65.3 -18.27,126.96 -49.93,180.06 -32.65,54.76 -79.61,100.24 -135.48,131.03z"/>
   </g>
   <g>
    <path class="fil1" d="M259.48 916.69c0,-21.96 17.81,-39.77 39.77,-39.77 21.96,0 39.76,17.81 39.76,39.77l0 25.77c0,21.96 -17.81,39.77 -39.76,39.77 -21.96,0 -39.77,-17.81 -39.77,-39.77l0 -25.77z"/>
    <path class="fil1" d="M0.57 1536l0 -164.4c0,-21.96 17.81,-39.76 39.76,-39.76 21.96,0 39.77,17.81 39.77,39.76l0 164.4c0,60.23 24.67,115.01 64.4,154.74 39.73,39.73 94.51,64.4 154.74,64.4 49.16,0 94.57,-16.28 131.07,-43.68 37.6,-28.22 65.93,-68.14 79.41,-114.15 6.09,-21.01 28.07,-33.11 49.08,-27.02 21.01,6.09 33.11,28.07 27.02,49.08 -18.4,62.78 -56.92,117.13 -107.99,155.46 -50,37.54 -111.91,59.84 -178.6,59.84 -82.17,0 -156.86,-33.59 -210.96,-87.71 -54.12,-54.11 -87.71,-128.79 -87.71,-210.96zm79.53 -308.49c0,21.96 -17.81,39.77 -39.77,39.77 -21.96,0 -39.76,-17.81 -39.76,-39.77l0 -315.11c0,-82.17 33.59,-156.86 87.71,-210.97 54.11,-54.12 128.79,-87.71 210.96,-87.71 20.69,0 41.21,2.24 61.3,6.48 20.64,4.36 40.33,10.76 58.8,18.94 20.07,8.83 29.18,32.28 20.35,52.34 -8.83,20.07 -32.28,29.18 -52.34,20.35 -13.87,-6.14 -28.26,-10.86 -42.95,-13.96 -14.29,-3.02 -29.39,-4.61 -45.15,-4.61 -60.23,0 -115.01,24.66 -154.74,64.4 -39.73,39.73 -64.4,94.52 -64.4,154.75l0 315.11zm400.85 -437.23c-12.26,-18.18 -7.46,-42.88 10.72,-55.14 18.18,-12.26 42.88,-7.46 55.14,10.72 16.27,24.08 29.18,50.82 37.97,79.49 8.54,27.83 13.14,57.09 13.14,87.06l0 551.84c0,21.96 -17.81,39.77 -39.77,39.77 -21.96,0 -39.77,-17.81 -39.77,-39.77l0 -551.84c0,-22.43 -3.3,-43.83 -9.41,-63.76 -6.37,-20.79 -15.9,-40.43 -28.03,-58.37z"/>
    <path class="fil1" d="M113.29 912.4c0,-51.18 20.91,-97.68 54.6,-131.36 33.68,-33.68 80.18,-54.6 131.36,-54.6 51.16,0 97.67,20.91 131.36,54.6 33.68,33.68 54.6,80.18 54.6,131.36l0 409.12c0,21.96 -17.81,39.76 -39.77,39.76 -21.96,0 -39.76,-17.81 -39.76,-39.76l0 -409.12c0,-29.23 -11.99,-55.84 -31.29,-75.13 -19.3,-19.3 -45.91,-31.29 -75.13,-31.29 -29.24,0 -55.84,11.99 -75.13,31.29 -19.3,19.3 -31.29,45.9 -31.29,75.13l0 81.64c0,21.96 -17.81,39.77 -39.77,39.77 -21.96,0 -39.77,-17.81 -39.77,-39.77l0 -81.64zm292.38 553.22c0,-21.96 17.81,-39.77 39.76,-39.77 21.96,0 39.77,17.81 39.77,39.77l0 70.39c0,51.17 -20.91,97.67 -54.6,131.36 -33.69,33.69 -80.19,54.6 -131.36,54.6 -51.18,0 -97.68,-20.91 -131.36,-54.6 -33.69,-33.68 -54.6,-80.19 -54.6,-131.36l0 -397.87c0,-21.96 17.81,-39.77 39.77,-39.77 21.96,0 39.77,17.81 39.77,39.77l0 397.87c0,29.23 11.99,55.84 31.29,75.14 19.29,19.3 45.9,31.29 75.13,31.29 29.22,0 55.83,-11.98 75.13,-31.29 19.3,-19.3 31.29,-45.91 31.29,-75.14l0 -70.39z"/>
    <path class="fil1" d="M259.48 917.42c0,-21.96 17.81,-39.77 39.77,-39.77 21.96,0 39.76,17.81 39.76,39.77l0 54.69c0,21.96 -17.81,39.77 -39.76,39.77 -21.96,0 -39.77,-17.81 -39.77,-39.77l0 -54.69zm0 189.12c0,-21.96 17.81,-39.77 39.77,-39.77 21.96,0 39.76,17.81 39.76,39.77l0 401.88c0,21.96 -17.81,39.77 -39.76,39.77 -21.96,0 -39.77,-17.81 -39.77,-39.77l0 -401.88z"/>
    <path class="fil1" d="M-0 299.24c0,-82.61 33.5,-157.44 87.65,-211.59 54.16,-54.16 128.98,-87.65 211.59,-87.65 75.39,0 144.36,28.02 197.07,74.24 53.3,46.73 89.87,112.13 99.5,185.98 2.83,21.7 -12.47,41.59 -34.18,44.42 -21.7,2.83 -41.59,-12.47 -44.42,-34.18 -7.07,-54.21 -33.94,-102.25 -73.1,-136.58 -38.59,-33.84 -89.28,-54.36 -144.88,-54.36 -60.68,0 -115.62,24.59 -155.37,64.34 -39.75,39.75 -64.34,94.69 -64.34,155.37 0,5.38 0.11,9.78 0.31,13.17 0.22,3.77 0.63,8.1 1.2,12.93 2.57,21.78 -13.01,41.54 -34.79,44.11 -21.78,2.57 -41.54,-13.01 -44.11,-34.79 -0.62,-5.26 -1.13,-11.13 -1.52,-17.6 -0.41,-6.85 -0.62,-12.81 -0.62,-17.83zm498.93 91.96c9.17,-19.9 32.75,-28.59 52.66,-19.41 19.9,9.17 28.59,32.75 19.41,52.65 -24.06,52.16 -62.69,96.21 -110.63,126.9 -46.61,29.85 -101.93,47.15 -161.12,47.15 -45.92,0 -89.48,-10.39 -128.46,-28.94 -40.26,-19.17 -75.66,-47.23 -103.68,-81.68 -13.81,-16.98 -11.23,-41.95 5.75,-55.76 16.98,-13.81 41.95,-11.23 55.76,5.75 20.45,25.14 46.52,45.73 76.35,59.94 28.5,13.57 60.48,21.17 94.29,21.17 43.65,0 84.24,-12.63 118.26,-34.41 35.31,-22.61 63.74,-55.01 81.43,-93.35z"/>
    <path class="fil1" d="M112.71 299.24c0,-51.5 20.88,-98.13 54.64,-131.89 33.75,-33.75 80.39,-54.64 131.89,-54.64 51.49,0 98.13,20.88 131.89,54.64 33.75,33.76 54.64,80.39 54.64,131.89 0,33.24 -8.83,64.62 -24.31,91.87 -15.91,28.05 -38.93,51.58 -66.59,68.15 -18.78,11.23 -43.13,5.11 -54.36,-13.67 -11.23,-18.78 -5.11,-43.13 13.67,-54.36 15.89,-9.52 29.14,-23.08 38.32,-39.26 8.74,-15.4 13.74,-33.4 13.74,-52.73 0,-29.55 -11.98,-56.32 -31.33,-75.67 -19.35,-19.35 -46.12,-31.33 -75.67,-31.33 -29.55,0 -56.32,11.98 -75.67,31.33 -19.35,19.35 -31.33,46.12 -31.33,75.67 0,20.31 5.53,39.18 15.14,55.15 9.92,16.51 24.36,30.18 41.68,39.39 19.39,10.29 26.76,34.36 16.47,53.74 -10.29,19.39 -34.36,26.76 -53.74,16.47 -29.84,-15.87 -54.93,-39.79 -72.44,-68.91 -16.9,-28.13 -26.63,-60.93 -26.63,-95.84z"/>
    <path class="fil2" d="M298.14 239.68c32.9,0 59.57,26.67 59.57,59.57 0,32.9 -26.67,59.57 -59.57,59.57 -32.9,0 -59.57,-26.67 -59.57,-59.57 0,-32.9 26.67,-59.57 59.57,-59.57z"/>
   </g>
  </g>
 </g>
</svg>
